<svg xmlns="http://www.w3.org/2000/svg" width="1048" height="1059.226" viewBox="0 0 1048 1059.226">
  <g id="Group_1" data-name="Group 1" transform="translate(-2152 -8.83)">
    <path id="Path_120" data-name="Path 120" d="M246.092,416.583c63.713-120.4,165.351-242.783,319.22-262.463,0,0-4.068,285.691-185.758,494.283H264.4a1283.245,1283.245,0,0,1-18.307-231.82Z" transform="translate(2689.578 -234.814) rotate(25)" fill="#84d8ff"/>
    <path id="Path_121" data-name="Path 121" d="M237.33,425.99c52.1-79.526,165.155-222.437,309.837-231.82,0,0-8.858,126.113-93.7,231.82Z" transform="translate(2653.448 -44.232) rotate(25)" fill="#00aeff"/>
    <path id="Path_117" data-name="Path 117" d="M226.792,382.109c66.534-81.691,73.424-180.049,73.424-180.049-112.334,7.349-199.8,119.224-239.366,180.049Z" transform="translate(2567.761 685.636)" fill="#00aeff"/>
    <path id="Path_118" data-name="Path 118" d="M415.537,648.453C394.475,562.759,287.062,189.143,8.72,154.17c0,0,4,285.691,185.758,494.283Z" transform="translate(2277.836 419.292)" fill="#84d8ff"/>
    <path id="Path_119" data-name="Path 119" d="M309.772,425.99C257.673,346.464,144.683,203.553,0,194.17c0,0,8.858,126.113,93.7,231.82Z" transform="translate(2229.339 641.755)" fill="#00aeff"/>
    <g id="Group_706" data-name="Group 706" transform="translate(-615 338)">
      <g id="Layer_2" data-name="Layer 2" transform="translate(3327.71 -212.205)">
        <g id="Layer_1" data-name="Layer 1">
          <path id="Path_618" data-name="Path 618" d="M0,141.091H379.923c2.122-.584,8.643-2.666,11.75-8.694,4.419-8.582-1.025-19.378-7.751-24.689a24.1,24.1,0,0,0-14.108-4.942A44.54,44.54,0,0,0,365.322,86.3c-9.74-19.481-30.687-24.135-32.184-24.433C309.474,57.048,292.3,73.145,290.814,74.56a20.137,20.137,0,0,0-8.459-7.761,20.444,20.444,0,0,0-13.4-1.415,55.95,55.95,0,0,0,.318-21.3C268.309,38.8,264.064,19.8,246.388,8.2,229.42-2.85,207.663-2.174,191.371,6.849s-22.854,24.135-24.689,28.913a58.534,58.534,0,0,0-16.928-4.224c-26.934-2.522-46.989,15.092-51.48,19.04A79.973,79.973,0,0,0,77.82,78.784c-4.962-1.169-26.165-5.588-46.928,6.7C1.025,103.186,0,138.989,0,141.091Z" transform="translate(0 0.005)" fill="#fff"/>
        </g>
      </g>
      <g id="Layer_2-2" data-name="Layer 2" transform="translate(2823.64 -70.663)">
        <g id="Layer_1-2" data-name="Layer 1">
          <path id="Path_618-2" data-name="Path 618" d="M393.271,141.091H13.349c-2.122-.584-8.643-2.666-11.75-8.694-4.419-8.582,1.025-19.378,7.751-24.689a24.1,24.1,0,0,1,14.108-4.942A44.54,44.54,0,0,1,27.949,86.3c9.74-19.481,30.687-24.135,32.184-24.433C83.8,57.048,100.97,73.145,102.457,74.56a20.137,20.137,0,0,1,8.459-7.761,20.444,20.444,0,0,1,13.4-1.415,55.949,55.949,0,0,1-.318-21.3C124.962,38.8,129.207,19.8,146.883,8.2,163.852-2.85,185.609-2.174,201.9,6.849s22.854,24.135,24.689,28.913a58.535,58.535,0,0,1,16.928-4.224c26.934-2.522,46.989,15.092,51.48,19.04a79.973,79.973,0,0,1,20.455,28.206c4.962-1.169,26.165-5.588,46.928,6.7C392.246,103.186,393.271,138.989,393.271,141.091Z" transform="translate(0 0.005)" fill="#fff"/>
        </g>
      </g>
      <g id="Group_704" data-name="Group 704" transform="translate(2830.372 -320.844)">
        <path id="Path_639" data-name="Path 639" d="M8.359,68.854a3.019,3.019,0,0,0,3.018-3.018V52.5a3.019,3.019,0,1,0-6.037,0V65.836a2.983,2.983,0,0,0,3.018,3.018Z" transform="translate(13.402 -49.48)" fill="#84d8ff"/>
        <path id="Path_640" data-name="Path 640" d="M8.358,75.444a3.054,3.054,0,0,0,3.018-3.018V59.159a3.019,3.019,0,1,0-6.037,0V72.531a3.018,3.018,0,0,0,3.018,2.913Z" transform="translate(13.403 -32.764)" fill="#84d8ff"/>
        <path id="Path_641" data-name="Path 641" d="M3.018,60.727h12a3.018,3.018,0,1,0,0-6.037h-12a3.019,3.019,0,0,0,0,6.037Z" transform="translate(0 -36.404)" fill="#84d8ff"/>
        <path id="Path_642" data-name="Path 642" d="M10.278,60.727H22.247a3.018,3.018,0,1,0,0-6.037H10.278a3.019,3.019,0,0,0,0,6.037Z" transform="translate(18.222 -36.404)" fill="#84d8ff"/>
      </g>
      <g id="Group_705" data-name="Group 705" transform="translate(3744.566 318.497)">
        <path id="Path_643" data-name="Path 643" d="M29.679,19.41A3.018,3.018,0,0,0,32.7,16.356V3.018a3.019,3.019,0,0,0-6.037,0V16.356a3.018,3.018,0,0,0,3.018,3.054Z" transform="translate(-7.918)" fill="#84d8ff"/>
        <path id="Path_644" data-name="Path 644" d="M29.678,26.034A3.018,3.018,0,0,0,32.7,23.016V9.678a3.019,3.019,0,0,0-6.037,0V23.016a3.018,3.018,0,0,0,3.018,3.018Z" transform="translate(-7.917 16.716)" fill="#84d8ff"/>
        <path id="Path_645" data-name="Path 645" d="M24.338,11.317h12a3.019,3.019,0,1,0,0-6.037h-12a3.019,3.019,0,0,0,0,6.037Z" transform="translate(-21.32 13.252)" fill="#84d8ff"/>
        <path id="Path_646" data-name="Path 646" d="M31.6,11.317h12a3.019,3.019,0,1,0,0-6.037h-12a3.019,3.019,0,0,0,0,6.037Z" transform="translate(-3.098 13.252)" fill="#84d8ff"/>
      </g>
      <g id="Group_703" data-name="Group 703" transform="translate(3087.464 -238.15)">
        <g id="Layer_2-3" data-name="Layer 2">
          <g id="OBJECTS">
            <rect id="Rectangle_640" data-name="Rectangle 640" width="427.74" height="879.161" rx="48" transform="translate(0 0.257)" fill="#fff"/>
            <path id="Path_661" data-name="Path 661" d="M34.164,0H344.017a34.164,34.164,0,0,1,34.164,34.164V800.9a34.164,34.164,0,0,1-34.164,34.164H34.164A34.164,34.164,0,0,1,0,800.9V34.164A34.164,34.164,0,0,1,34.164,0Z" transform="translate(24.791 22.309)" fill="#ebebeb"/>
            <rect id="Rectangle_642" data-name="Rectangle 642" width="211.889" height="49.559" rx="24.779" transform="translate(107.926)" fill="#fff"/>
          </g>
        </g>
        <g id="Group_702" data-name="Group 702" transform="translate(34.715 176.359)">
          <g id="Group_697" data-name="Group 697" transform="translate(0 265.281)">
            <g id="Group_688" data-name="Group 688">
              <rect id="Rectangle_653" data-name="Rectangle 653" width="315.783" height="136.796" rx="11.61" transform="translate(20.853)" fill="#b2e5fe"/>
              <path id="Path_662" data-name="Path 662" d="M0,143.18H55.368l-24.2,31.172Z" transform="translate(0 -143.18)" fill="#b2e5fe"/>
            </g>
            <g id="Group_696" data-name="Group 696" transform="translate(49.013 29.696)">
              <g id="Group_695" data-name="Group 695" transform="translate(109.122 44.669)">
                <circle id="Ellipse_21" data-name="Ellipse 21" cx="15.994" cy="15.994" r="15.994" transform="translate(0 0)" fill="#f2cf00"/>
                <g id="Group_694" data-name="Group 694" transform="translate(5.543 9.761)">
                  <path id="Path_663" data-name="Path 663" d="M95.639,192.64c0,1.636-1.343-1.019-2.98-1.019s-2.98,2.655-2.98,1.019a2.98,2.98,0,1,1,5.959,0Z" transform="translate(-89.68 -189.66)" fill="#3d3d3d"/>
                  <path id="Path_664" data-name="Path 664" d="M105.319,192.64c0,1.636-1.328-1.019-2.98-1.019s-2.98,2.655-2.98,1.019a2.98,2.98,0,1,1,5.959,0Z" transform="translate(-84.416 -189.66)" fill="#3d3d3d"/>
                  <path id="Path_665" data-name="Path 665" d="M99.85,199.849a13.446,13.446,0,0,1-9.525-3.937.437.437,0,1,1,.618-.618,12.613,12.613,0,0,0,17.816,0,.437.437,0,0,1,.618.617,13.447,13.447,0,0,1-9.525,3.937Z" transform="translate(-89.399 -186.665)" fill="#3d3d3d"/>
                </g>
              </g>
              <g id="Group_693" data-name="Group 693">
                <rect id="Rectangle_654" data-name="Rectangle 654" width="244.869" height="6.899" fill="#2d74e8"/>
                <rect id="Rectangle_655" data-name="Rectangle 655" width="244.869" height="6.899" transform="translate(0 26.255)" fill="#2d74e8"/>
                <rect id="Rectangle_656" data-name="Rectangle 656" width="97.17" height="6.899" transform="translate(0 57.35)" fill="#2d74e8"/>
              </g>
            </g>
          </g>
          <g id="Group_690" data-name="Group 690" transform="translate(20.772 138.808)">
            <path id="Path_666" data-name="Path 666" d="M343.636,78.09H29.563A22.621,22.621,0,0,0,7,100.653v52.822a22.621,22.621,0,0,0,22.563,22.543H300.24a22.6,22.6,0,0,0,22.543-22.543V99.02Z" transform="translate(-7 -78.09)" fill="#4d99f5"/>
            <g id="Group_689" data-name="Group 689" transform="translate(24.354 32.768)">
              <rect id="Rectangle_657" data-name="Rectangle 657" width="244.869" height="6.899" fill="#fff"/>
              <rect id="Rectangle_658" data-name="Rectangle 658" width="147.699" height="6.899" transform="translate(0 26.236)" fill="#fff"/>
            </g>
          </g>
          <g id="Group_701" data-name="Group 701">
            <path id="Path_667" data-name="Path 667" d="M0,0H55.368l-24.2,31.172Z" fill="#d4eeff"/>
            <g id="Group_699" data-name="Group 699" transform="translate(20.853)">
              <path id="Rectangle_659" data-name="Rectangle 659" d="M11.61,0H304.173a11.61,11.61,0,0,1,11.61,11.61V97.978a11.61,11.61,0,0,1-11.61,11.61H11.61A11.61,11.61,0,0,1,0,97.978V11.61A11.61,11.61,0,0,1,11.61,0Z" fill="#afe3fe"/>
              <g id="Group_698" data-name="Group 698" transform="translate(28.16 37.888)">
                <rect id="Rectangle_660" data-name="Rectangle 660" width="244.869" height="6.899" fill="#2d74e8"/>
                <rect id="Rectangle_661" data-name="Rectangle 661" width="89.377" height="6.899" transform="translate(0 26.255)" fill="#2d74e8"/>
              </g>
            </g>
          </g>
          <g id="Group_692" data-name="Group 692" transform="translate(20.48 430.711)">
            <g id="Group_700" data-name="Group 700">
              <path id="Path_668" data-name="Path 668" d="M336.636,228.27H22.563A22.621,22.621,0,0,0,0,250.833v52.822a22.621,22.621,0,0,0,22.563,22.563H293.24a22.621,22.621,0,0,0,22.543-22.563V249.22Z" transform="translate(0 -228.27)" fill="#4d99f5"/>
              <g id="Group_691" data-name="Group 691" transform="translate(31.522 32.768)">
                <rect id="Rectangle_662" data-name="Rectangle 662" width="244.869" height="6.899" fill="#fff"/>
                <rect id="Rectangle_663" data-name="Rectangle 663" width="147.699" height="6.899" transform="translate(0 26.236)" fill="#fff"/>
              </g>
            </g>
          </g>
        </g>
      </g>
      <g id="Layer_2-4" data-name="Layer 2" transform="translate(3327.393 431.105)">
        <g id="Layer_1-3" data-name="Layer 1">
          <path id="Path_647" data-name="Path 647" d="M291.161,35.546a100.67,100.67,0,0,1,27.773,24.59c3.771,4.918,14.867,20.2,20.268,49.188,11.02,59.1-13.826,109.034-18.013,117.173-10.952,21.279-23.813,46.276-53.3,62.924-34.275,19.348-70.369,15.772-90.833,13.743-26.634-2.648-45.507-10.115-63.806-17.349-23.187-9.18-51.1-20.547-76.569-46.284C26.4,229.137,13.344,215.741,5.922,193.949,2.829,184.9-4.171,164.358,3.4,141.9c1.735-5.159,6.789-17.892,32.488-39.661,13.577-11.48,35.362-27.562,78.877-47.174,33.453-15.086,50.176-22.629,74.314-27.351C215.18,22.61,255.829,14.629,291.161,35.546Z" transform="translate(-0.002 -5.864)" fill="#a8e3ff" opacity="0.25"/>
          <path id="Path_648" data-name="Path 648" d="M227.435,383.426a252.063,252.063,0,0,1-30.225-5.092q.143-7.724.287-15.456a16.749,16.749,0,0,1,3.983-10.145c1.984-2.18,4.382-4.993,10.2-4.993h32.01a15.32,15.32,0,0,1,15.32,15.32l-.038,21.716a250.714,250.714,0,0,1-31.537-1.35Z" transform="translate(-48.456 -85.93)" fill="#fffeff"/>
          <path id="Path_649" data-name="Path 649" d="M509.262,84.02l-6.17,5.469-31.462-33.7,6.163-5.476Z" transform="translate(-115.88 -12.852)" fill="#353535"/>
          <path id="Path_650" data-name="Path 650" d="M507.614,52.987l-8.644,1.124L492.46,6.884l8.652-1.124Z" transform="translate(-120.998 -1.906)" fill="#353535"/>
          <ellipse id="Ellipse_14" data-name="Ellipse 14" cx="6.517" cy="6.683" rx="6.517" ry="6.683" transform="translate(371.174 34.582) rotate(-89.083)" fill="#fffeff"/>
          <rect id="Rectangle_643" data-name="Rectangle 643" width="9.685" height="47.642" transform="translate(390.328) rotate(0.917)" fill="#353535"/>
          <ellipse id="Ellipse_15" data-name="Ellipse 15" cx="6.517" cy="6.683" rx="6.517" ry="6.683" transform="translate(388.303 30.291) rotate(-89.083)" fill="#fffeff"/>
          <path id="Path_651" data-name="Path 651" d="M540.937,53.816,532.3,52.639,539.006,5.45l8.644,1.177Z" transform="translate(-130.787 -1.829)" fill="#353535"/>
          <ellipse id="Ellipse_16" data-name="Ellipse 16" cx="6.517" cy="6.683" rx="6.517" ry="6.683" transform="translate(402.403 35.092) rotate(-89.083)" fill="#fff"/>
          <rect id="Rectangle_644" data-name="Rectangle 644" width="99.017" height="23.519" transform="translate(82.301 153.508) rotate(90)" fill="#353535"/>
          <rect id="Rectangle_645" data-name="Rectangle 645" width="99.017" height="23.519" transform="translate(288.011 120.396) rotate(4.57)" fill="#353535"/>
          <rect id="Rectangle_646" data-name="Rectangle 646" width="86.481" height="47.74" rx="23.87" transform="translate(224.241 121.662) rotate(-14.954)" fill="#fff"/>
          <path id="Path_652" data-name="Path 652" d="M0,0H26.247A13.741,13.741,0,0,1,39.988,13.741h0A13.408,13.408,0,0,1,26.581,27.149H0Z" transform="matrix(0.259, 0.966, -0.966, 0.259, 279.035, 108.183)" fill="#b5b5b5"/>
          <rect id="Rectangle_647" data-name="Rectangle 647" width="86.481" height="47.74" rx="23.87" transform="translate(39.064 116.155)" fill="#fff"/>
          <path id="Path_653" data-name="Path 653" d="M0,0H26.137A13.683,13.683,0,0,1,39.82,13.683h0A13.351,13.351,0,0,1,26.468,27.034H0Z" transform="translate(95.818 116.155) rotate(90)" fill="#b5b5b5"/>
          <path id="Path_654" data-name="Path 654" d="M528.43,54.925l1.72.166-9.957,97.184c-1.252,12.227-12.9,21.12-26.016,19.853h0c-13.117-1.26-22.735-12.2-21.482-24.417l5.589-54.528C480.7,69.627,503.145,52.5,528.43,54.925Z" transform="translate(-116.115 -13.929)" fill="#fffeff"/>
          <path id="Path_655" data-name="Path 655" d="M52.05,308.521a27.573,27.573,0,0,1,13.826-13.947,24.673,24.673,0,0,1,15.456-1.629A25.347,25.347,0,0,1,95.09,301.89c11.986,14.332,3.062,37.172,2.648,38.19A174.137,174.137,0,0,1,52.05,308.52Z" transform="translate(-12.79 -72.327)" fill="#fffeff"/>
          <path id="Path_656" data-name="Path 656" d="M282.021,307.536,235.3,307.25q.1-62.245.2-124.46h72.141c7.754,0,14.045,6.9,14.045,15.418Q309.342,245.073,297,291.945a19.25,19.25,0,0,1-5.107,10.794,16.082,16.082,0,0,1-9.874,4.8Z" transform="translate(-57.814 -45.402)" fill="#fff"/>
          <path id="Path_657" data-name="Path 657" d="M162.621,307.536l46.721-.287q-.106-62.245-.2-124.46H137.005c-7.754,0-14.045,6.9-14.045,15.418q12.348,46.865,24.681,93.737a19.2,19.2,0,0,0,5.107,10.794A16.051,16.051,0,0,0,162.621,307.536Z" transform="translate(-30.212 -45.402)" fill="#fff"/>
          <path id="Path_658" data-name="Path 658" d="M150.06,294.174c.151,1.192,2.625,19.725,8.1,27.336a11.7,11.7,0,0,0,5.356,4.669c1.788.679,3.7.754,6.751.867,2.263.091,3.983,0,4.149,0,4.028-.189,19.7-.709,41.585-1.433l-.324-68.083a36.425,36.425,0,0,0-14.875,4.443c-10.869,6.2-9.6,14.06-22.508,23.119a57.862,57.862,0,0,1-15.131,7.543,32.191,32.191,0,0,1-6.487,1.637,25.864,25.864,0,0,1-6.615-.1Z" transform="translate(-36.871 -63.765)" fill="#b5b5b5"/>
          <path id="Path_659" data-name="Path 659" d="M301.241,294.174c-.151,1.192-2.625,19.725-8.1,27.336a11.687,11.687,0,0,1-5.363,4.669c-1.78.679-3.7.754-6.743.867-2.263.091-3.983,0-4.149,0-4.028-.189-19.7-.709-41.585-1.433l.324-68.083a36.425,36.425,0,0,1,14.875,4.443c10.862,6.2,9.6,14.06,22.508,23.119a57.6,57.6,0,0,0,15.131,7.543,32.109,32.109,0,0,0,6.479,1.637,25.925,25.925,0,0,0,6.623-.1Z" transform="translate(-57.814 -63.765)" fill="#b5b5b5"/>
          <circle id="Ellipse_17" data-name="Ellipse 17" cx="9.519" cy="9.519" r="9.519" transform="translate(168.857 156.05)" fill="#b5b5b5"/>
          <circle id="Ellipse_18" data-name="Ellipse 18" cx="9.519" cy="9.519" r="9.519" transform="translate(168.721 156.05)" fill="none" stroke="#353535" stroke-miterlimit="10" stroke-width="2"/>
          <rect id="Rectangle_648" data-name="Rectangle 648" width="32.171" height="12.974" transform="translate(162.219 124.399)" fill="#e0edf0"/>
          <rect id="Rectangle_649" data-name="Rectangle 649" width="18.299" height="44.987" rx="9.149" transform="translate(230.46 41.238)" fill="#353535"/>
          <rect id="Rectangle_650" data-name="Rectangle 650" width="18.299" height="44.987" rx="9.149" transform="translate(107.856 41.238)" fill="#353535"/>
          <rect id="Rectangle_651" data-name="Rectangle 651" width="111.335" height="113.349" rx="54.34" transform="translate(122.724 7.053)" fill="#353535"/>
          <circle id="Ellipse_19" data-name="Ellipse 19" cx="5.65" cy="5.65" r="5.65" transform="translate(152.918 43.04)" fill="#fffeff"/>
          <circle id="Ellipse_20" data-name="Ellipse 20" cx="5.65" cy="5.65" r="5.65" transform="translate(192.564 43.04)" fill="#fffeff"/>
          <path id="Path_660" data-name="Path 660" d="M232.2,106.641c-5.6-.068-10.621-4.179-12.589-10.311h25.48C243.076,102.568,237.9,106.7,232.2,106.641Z" transform="translate(-53.959 -24.159)" fill="#fffeff"/>
          <rect id="Rectangle_652" data-name="Rectangle 652" width="108.106" height="113.349" rx="40" transform="translate(124.338 7.053)" fill="none" stroke="#fff" stroke-miterlimit="10" stroke-width="14"/>
        </g>
      </g>
      <g id="Layer_2-5" data-name="Layer 2" transform="translate(2935.166 -258.997)">
        <g id="Layer_1-4" data-name="Layer 1">
          <path id="Path_620" data-name="Path 620" d="M45.27,104.886A92.538,92.538,0,0,0,20.531,128.4c-3.383,4.7-13.241,19.3-18.076,47.01C-7.358,231.9,14.779,279.633,18.5,287.41c9.774,20.342,21.233,44.235,47.5,60.175,28.735,17.431,59.574,14.771,80.911,13.131a191.279,191.279,0,0,0,57.98-14.2c38.838-16.14,61.369-40.291,67.063-46.63,10.329-11.511,21.117-23.777,27.411-43.557,2.776-8.709,9.393-29.516,1.511-51.892-1.427-4.061-6.036-15.63-28.206-35.759-12.085-10.975-31.5-26.346-70.259-45.094-29.8-14.409-44.7-21.614-66.2-26.146C112.965,92.517,76.761,84.892,45.27,104.886Z" transform="translate(0.03 -32.54)" fill="#a8e3ff" opacity="0.25"/>
          <path id="Path_621" data-name="Path 621" d="M274.65,254.47a48.953,48.953,0,0,1,7.876,6.353,40.439,40.439,0,0,1,12.266,23.067,130.034,130.034,0,0,1,1.685,31.13l9.148-.762c-.187-2.64-.478-5.668-.936-9.006,0,0-3.008-22.111-12.034-37.3a28.517,28.517,0,0,0-5.036-6.417,29.91,29.91,0,0,0-8.186-5.378,30.85,30.85,0,0,0-4.783-1.687Z" transform="translate(-97.32 -90.189)" fill="#353535"/>
          <path id="Path_622" data-name="Path 622" d="M317.692,358.4q1.162,20.278,1.575,41.963.368,19.929,0,38.69l-3.4,1.433-3.138,1.291q-1.369-20.956-2.092-43.189-.646-20.3-.646-39.594Z" transform="translate(-109.845 -127.023)" fill="#f4ab76"/>
          <path id="Path_623" data-name="Path 623" d="M300.48,348.031c9.109-1.627,15.8-2.731,16.307-2.673a1.531,1.531,0,0,1,.646.232,1.421,1.421,0,0,1,.374.407c.42.646-.613,2.686-.323,4.519.168,1.059.71,2.085.91,3.505a1.291,1.291,0,0,1-.2,1.033,1.169,1.169,0,0,1-.587.323,1.413,1.413,0,0,1-.594,0,25.383,25.383,0,0,0-6.733.93,68.838,68.838,0,0,0-8.857,2.789Q300.945,353.558,300.48,348.031Z" transform="translate(-106.474 -122.4)" fill="#565656"/>
          <path id="Path_624" data-name="Path 624" d="M124.51,297.14q4.59-6.456,9.19-13.14,3.228-4.655,6.353-9.29s2.537-3.751,6.314-8.393h0s7.4-9.038,14.4-13.293c.923-.562,1.853-1.033,1.853-1.033s.7-.355,1.407-.646a23.72,23.72,0,0,1,5.662-1.472c13.661-1.685,50.491,2.653,50.491,2.653a11.828,11.828,0,0,1,3.6.975,12.667,12.667,0,0,1,3.719,2.621,54.8,54.8,0,0,1,6.959,8.218,52.69,52.69,0,0,1,5.068,10.007c1.491,3.777,4.093,11.478,4.764,36.288.129,4.713.219,11.291.039,19.213-.174,8.037.284,14.965.768,27.347.452,11.491,1.123,27,2.118,45.92A209.248,209.248,0,0,1,158.2,417.528c.729-10.626,1.233-21.666,1.446-33.093.42-22.492-.323-43.629-1.827-63.235Z" transform="translate(-44.107 -88.423)" fill="#3f3f3f"/>
          <path id="Path_625" data-name="Path 625" d="M118.651,290.553c-3.131,5.655-9.522,17.121-14.752,25.856-.187.31-1.291,2.169-2.963,4.519-4.112,5.888-6.488,9.29-10.562,11.4A14.81,14.81,0,0,1,81.1,334.2c-7.14-1.117-11.549-8.328-12.731-10.258-.536-.891-.93-1.653-1.181-2.176a305.1,305.1,0,0,1-19.148-87.3,61.253,61.253,0,0,1-6.217-6.908,36.817,36.817,0,0,1-4.881-7.6,41.536,41.536,0,0,1-2.582-7.889c-.646-2.582-.516-2.892-.988-4.939-1.375-6.049-4.764-14.041-4.035-15.862a1.5,1.5,0,0,1,1.956-1.007c2.156.51,5.991,8.573,7.747,9.593a1.072,1.072,0,0,0,.9.174c.349-.174.407-.723.426-.91.207-1.937-3.46-23.17-2.408-25.636a1.866,1.866,0,0,1,.872-.988,1.937,1.937,0,0,1,1.42.123c2.582,1.156,5.972,15.636,6.863,16.785a.93.93,0,0,0,.6.4.994.994,0,0,0,.736-.342c1.136-1.1,2.544-17.489,4.739-19.367a1.737,1.737,0,0,1,2.711.174c2.027,2.2,1.6,20.471,2.26,21.763.045.1.187.368.407.387s.587-.426.691-.587c.923-1.5,4.364-11.743,7.45-14.067.271-.2,1.059-.794,1.73-.549s.859,1.052.936,1.343c.936,3.37-2.427,25.055-1.2,28.406a2.828,2.828,0,0,0,1.046,1.407,3.154,3.154,0,0,0,.439.181,3.816,3.816,0,0,0,1.937-.039c.988-.271,3.363-2.034,6.01-4.99a12.266,12.266,0,0,1,5.72-2.763c1.414-.245,2.059-.045,2.466.3a2.948,2.948,0,0,1,.691,2.466c-.168,2.15-1.711,3.66-2.64,4.564-4.519,4.442-6.766,6.656-7.5,7.747-1.859,2.744-1.181,3.383-3.673,7.134a53.286,53.286,0,0,1-3.4,4.364c-1.291,1.62-3.273,4.022-5.662,7.011q4.726,13.015,9.251,27.114,5.255,16.456,9.425,31.931L90.676,277.6Z" transform="translate(-10.339 -60.08)" fill="#f0ae7c"/>
          <path id="Path_626" data-name="Path 626" d="M187.268,341.791a7.85,7.85,0,0,0-1.149,4.435,10.33,10.33,0,0,1,.742,6.146,10.807,10.807,0,0,1-4.519,6.553,12.15,12.15,0,0,1-5.223,2.124l-.949-16.527,14.907-25.752q-.291,10.052-.594,20.1A7.9,7.9,0,0,0,187.268,341.791Z" transform="translate(-62.417 -112.978)" fill="#353535"/>
          <path id="Path_627" data-name="Path 627" d="M124.2,318.276c.646.755,9.568,9.9,15.139,12.841,6.514,3.447,20.233,4.661,22.227,5.165a1.414,1.414,0,0,1,.826.5,1.453,1.453,0,0,1,.22.852c-.045,1.388-3.447,2.511-4.106,4.887-.374,1.349,0,3.544-.187,5.165a1.117,1.117,0,0,1-.368.775,1.22,1.22,0,0,1-.962.148c-17.25-3.1-25.352-8.251-25.352-8.251-14.2-9.038-14.79-15.126-14.764-15.546a2,2,0,0,1,.362-1.039,1.827,1.827,0,0,1,.9-.587,8.121,8.121,0,0,0,2.776-1.556c1.014-1.039.936-2.666,1.853-3.589a.917.917,0,0,1,.575-.3,1.214,1.214,0,0,1,.865.536Z" transform="translate(-41.399 -112.613)" fill="#565656"/>
          <path id="Path_628" data-name="Path 628" d="M227.368,226l-.291,17.689a6.232,6.232,0,0,1-.039.775,19.458,19.458,0,0,0,2.221,9.29,22.3,22.3,0,0,0,10.213,9.845c5.378,2.524,8.612,1.227,8.9,1.033a4.81,4.81,0,0,0,1.091-.994h0a5,5,0,0,0,.91-1.937,6.456,6.456,0,0,0,.161-1.382c0-1.343.465-13.183,1.149-29.9Z" transform="translate(-80.445 -80.098)" fill="#f0ae7c"/>
          <path id="Path_629" data-name="Path 629" d="M227.34,236.131a35.449,35.449,0,0,0,11.149,4.6,32.647,32.647,0,0,0,12.983.232q.194-5.578.381-11.156l-24.371-5.7Q227.417,230.127,227.34,236.131Z" transform="translate(-80.552 -79.428)" fill="#eb886b" opacity="0.42"/>
          <path id="Path_630" data-name="Path 630" d="M248.472,68.659a44.764,44.764,0,0,1,.762,13.615c-.555,5.591-2.718,15.92-3.157,20.723-.374,4.08,0,3.118-.1,17.321-.084,10.975,0,13.964-.594,18.948a89.334,89.334,0,0,1-2.247,11.976c-1.072,4.054-3.028,10.213-4.558,12.873-6.953,12.1-41.35,14.978-63.267-1.995-9.871-7.644-14.848-17.508-17.431-24.4l-13.325-3.228q-1.181-15.694-2.369-31.382l19.445-1.188q.581,8.347,1.175,16.695l1.937.032q-.039-5.61-.1-11.246-.194-17.256-.646-34.216c11.285-5.165,32.318-12.77,58.522-10.265a109.9,109.9,0,0,1,25.946,5.739Z" transform="translate(-50.373 -22.125)" fill="#f0ae7c"/>
          <path id="Path_631" data-name="Path 631" d="M151.679,96.515c.833-5.384-1.362-10.368-5.326-12.531-.213-.116-4.577-2.421-8.109-.478-5.52,3.034-5.92,14.719-1.465,22.389a21.945,21.945,0,0,0,11.349,9.174,53.455,53.455,0,0,0,10.555,18.851,52.713,52.713,0,0,0,9.277,8.393,76.5,76.5,0,0,1-20.626-9.471,78.474,78.474,0,0,1-30.1-38.089,89.932,89.932,0,0,1-3.454-38.98s1.892-13.131,8.78-23.783a20.731,20.731,0,0,1,3.06-3.654c2.492-2.253,4.261-2.524,6.262-3.738,4.635-2.8,3.738-6.533,7.8-10.471,1.788-1.737,4.79-3.751,10.026-4.584,1.937-.065,4.887-.116,8.477,0,12.169.387,16.269,2.15,25.823,3.157s28.774,2.059,32.04-5.165c.445-.994,2.35-6.03,4.429-7.043A4.751,4.751,0,0,1,222.241,0a4.8,4.8,0,0,1,2.15.542c2.473,1.343,2.085,5,3.473,5.281s2.26-3.506,5.229-4.048a5.229,5.229,0,0,1,3.66.923c3,2.111,2.356,6.682,3.744,6.875,1.291.174,1.937-3.622,4.048-3.951s4.371,3.228,4.835,3.951c5.294,8.477,1.685,20.155,1.085,22.1-1.123,3.628-3.654,11.827-11.349,17.076-3.292,2.24-7.063,3.1-14.6,4.835a126.845,126.845,0,0,1-21,2.834,120.513,120.513,0,0,1-16.624-.213,41.228,41.228,0,0,1-10.833-1.833,35.468,35.468,0,0,1-7.9-3.751c-.349,1.291-.91,3.286-1.679,5.726-.575,1.808-2.8,8.715-7.992,20.917-2.214,5.21-2.989,6.721-3.454,9.774a27.837,27.837,0,0,0,.194,9.374Z" transform="translate(-40.023)" fill="#464240"/>
          <path id="Path_632" data-name="Path 632" d="M214.943,250.49a49.148,49.148,0,0,0-2.053,13.293c-.052,3.641-.11,7.592,1.562,12.266,1.11,3.105,3.706,10.375,10.329,12.524a11.963,11.963,0,0,0,8.444-.29,12.124,12.124,0,0,0,6.2-6.475,14.2,14.2,0,0,0,7.179,3.957c3.506.729,7.25.065,9.077-1.227,4.842-3.415,3.77-16.449-4.164-31.634l-5.378-.536c-.1,3.383-.252,7.805-.5,13.047-.181,3.706-.355,6.456-2.24,7.624a7.327,7.327,0,0,1-4.145.646,12.013,12.013,0,0,1-4.209-1.117,21.163,21.163,0,0,1-5.926-3.815,23.3,23.3,0,0,1-3.641-4.177c-3.538-5.365-3.48-11.466-3.4-13.757Z" transform="translate(-75.424 -88.778)" fill="#353535"/>
        </g>
      </g>
      <g id="Polygon_6" data-name="Polygon 6" transform="translate(2794 678)">
        <path id="Path_1" data-name="Path 1" d="M21.5,0,43,38H0Z" fill="none"/>
        <path id="Path_2" data-name="Path 2" d="M21.5,12.184,10.288,32H32.711L21.5,12.184M21.5,0,43,38H0Z" fill="#00aeff"/>
      </g>
      <g id="Polygon_7" data-name="Polygon 7" transform="translate(3391 -278)">
        <path id="Path_3" data-name="Path 3" d="M20.5,0,41,36H0Z" fill="none"/>
        <path id="Path_4" data-name="Path 4" d="M20.5,12.125,10.321,30H30.679L20.5,12.125M20.5,0,41,36H0Z" fill="#00aeff"/>
      </g>
      <g id="Ellipse_22" data-name="Ellipse 22" transform="translate(3777 -255)" fill="none" stroke="#295be2" stroke-width="5">
        <circle cx="19" cy="19" r="19" stroke="none"/>
        <circle cx="19" cy="19" r="16.5" fill="none"/>
      </g>
      <g id="Ellipse_23" data-name="Ellipse 23" transform="translate(2767 145)" fill="none" stroke="#295be2" stroke-width="5">
        <circle cx="19" cy="19" r="19" stroke="none"/>
        <circle cx="19" cy="19" r="16.5" fill="none"/>
      </g>
    </g>
  </g>
</svg>
